<?xml version="1.0" encoding="UTF-8" standalone="no"?>
<!DOCTYPE svg PUBLIC "-//W3C//DTD SVG 1.1//EN"
 "http://www.w3.org/Graphics/SVG/1.1/DTD/svg11.dtd">
<!-- Generated by graphviz version 2.38.0 (20140413.2041)
 -->
<!-- Title: %3 Pages: 1 -->
<svg width="203pt" height="392pt"
 viewBox="0.00 0.00 202.75 392.00" xmlns="http://www.w3.org/2000/svg" xmlns:xlink="http://www.w3.org/1999/xlink">
<g id="graph0" class="graph" transform="scale(1 1) rotate(0) translate(4 388)">
<title>%3</title>
<polygon fill="white" stroke="none" points="-4,4 -4,-388 198.747,-388 198.747,4 -4,4"/>
<!-- ATG -->
<g id="node1" class="node"><title>ATG</title>
<ellipse fill="none" stroke="black" cx="81.7468" cy="-366" rx="35.9954" ry="18"/>
<text text-anchor="middle" x="81.7468" y="-362.3" font-family="Times,serif" font-size="14.00">ATG 2</text>
</g>
<!-- TGA -->
<g id="node2" class="node"><title>TGA</title>
<ellipse fill="none" stroke="black" cx="35.7468" cy="-279" rx="35.9954" ry="18"/>
<text text-anchor="middle" x="35.7468" y="-275.3" font-family="Times,serif" font-size="14.00">TGA 2</text>
</g>
<!-- ATG&#45;&gt;TGA -->
<g id="edge1" class="edge"><title>ATG&#45;&gt;TGA</title>
<path fill="none" stroke="black" d="M57.8733,-352.367C49.6534,-346.702 41.3614,-339.201 36.7468,-330 33.268,-323.064 32.0964,-314.876 32.045,-307.157"/>
<polygon fill="black" stroke="black" points="35.5448,-307.247 32.5577,-297.082 28.5539,-306.891 35.5448,-307.247"/>
<text text-anchor="middle" x="71.7468" y="-318.8" font-family="Times,serif" font-size="14.00">ATGA 4 2.0</text>
</g>
<!-- TGC -->
<g id="node3" class="node"><title>TGC</title>
<ellipse fill="none" stroke="black" cx="127.747" cy="-279" rx="35.194" ry="18"/>
<text text-anchor="middle" x="127.747" y="-275.3" font-family="Times,serif" font-size="14.00">TGC 2</text>
</g>
<!-- ATG&#45;&gt;TGC -->
<g id="edge2" class="edge"><title>ATG&#45;&gt;TGC</title>
<path fill="none" stroke="black" d="M94.2297,-349.114C98.4978,-343.288 103.108,-336.521 106.747,-330 110.876,-322.6 114.697,-314.224 117.916,-306.472"/>
<polygon fill="black" stroke="black" points="121.198,-307.692 121.651,-297.107 114.696,-305.099 121.198,-307.692"/>
<text text-anchor="middle" x="149.247" y="-318.8" font-family="Times,serif" font-size="14.00">ATGC 4 2.0</text>
</g>
<!-- GAT -->
<g id="node4" class="node"><title>GAT</title>
<ellipse fill="none" stroke="black" cx="35.7468" cy="-192" rx="35.9954" ry="18"/>
<text text-anchor="middle" x="35.7468" y="-188.3" font-family="Times,serif" font-size="14.00">GAT 2</text>
</g>
<!-- TGA&#45;&gt;GAT -->
<g id="edge3" class="edge"><title>TGA&#45;&gt;GAT</title>
<path fill="none" stroke="black" d="M35.7468,-260.799C35.7468,-249.163 35.7468,-233.548 35.7468,-220.237"/>
<polygon fill="black" stroke="black" points="39.2469,-220.175 35.7468,-210.175 32.2469,-220.175 39.2469,-220.175"/>
<text text-anchor="middle" x="69.7468" y="-231.8" font-family="Times,serif" font-size="14.00">TGAT 4 2.0</text>
</g>
<!-- GCT -->
<g id="node5" class="node"><title>GCT</title>
<ellipse fill="none" stroke="black" cx="127.747" cy="-192" rx="35.194" ry="18"/>
<text text-anchor="middle" x="127.747" y="-188.3" font-family="Times,serif" font-size="14.00">GCT 2</text>
</g>
<!-- TGC&#45;&gt;GCT -->
<g id="edge4" class="edge"><title>TGC&#45;&gt;GCT</title>
<path fill="none" stroke="black" d="M127.747,-260.799C127.747,-249.163 127.747,-233.548 127.747,-220.237"/>
<polygon fill="black" stroke="black" points="131.247,-220.175 127.747,-210.175 124.247,-220.175 131.247,-220.175"/>
<text text-anchor="middle" x="161.247" y="-231.8" font-family="Times,serif" font-size="14.00">TGCT 4 2.0</text>
</g>
<!-- ATC -->
<g id="node6" class="node"><title>ATC</title>
<ellipse fill="none" stroke="black" cx="35.7468" cy="-105" rx="35.194" ry="18"/>
<text text-anchor="middle" x="35.7468" y="-101.3" font-family="Times,serif" font-size="14.00">ATC 2</text>
</g>
<!-- GAT&#45;&gt;ATC -->
<g id="edge5" class="edge"><title>GAT&#45;&gt;ATC</title>
<path fill="none" stroke="black" d="M35.7468,-173.799C35.7468,-162.163 35.7468,-146.548 35.7468,-133.237"/>
<polygon fill="black" stroke="black" points="39.2469,-133.175 35.7468,-123.175 32.2469,-133.175 39.2469,-133.175"/>
<text text-anchor="middle" x="70.2468" y="-144.8" font-family="Times,serif" font-size="14.00">GATC 4 2.0</text>
</g>
<!-- CTC -->
<g id="node7" class="node"><title>CTC</title>
<ellipse fill="none" stroke="black" cx="126.747" cy="-105" rx="34.394" ry="18"/>
<text text-anchor="middle" x="126.747" y="-101.3" font-family="Times,serif" font-size="14.00">CTC 2</text>
</g>
<!-- GCT&#45;&gt;CTC -->
<g id="edge6" class="edge"><title>GCT&#45;&gt;CTC</title>
<path fill="none" stroke="black" d="M127.544,-173.799C127.408,-162.163 127.224,-146.548 127.067,-133.237"/>
<polygon fill="black" stroke="black" points="130.566,-133.134 126.949,-123.175 123.567,-133.216 130.566,-133.134"/>
<text text-anchor="middle" x="160.747" y="-144.8" font-family="Times,serif" font-size="14.00">GCTC 4 2.0</text>
</g>
<!-- TCC -->
<g id="node8" class="node"><title>TCC</title>
<ellipse fill="none" stroke="black" cx="80.7468" cy="-18" rx="34.394" ry="18"/>
<text text-anchor="middle" x="80.7468" y="-14.3" font-family="Times,serif" font-size="14.00">TCC 2</text>
</g>
<!-- ATC&#45;&gt;TCC -->
<g id="edge7" class="edge"><title>ATC&#45;&gt;TCC</title>
<path fill="none" stroke="black" d="M32.5978,-86.9381C31.5622,-76.8523 31.7419,-64.1167 36.7468,-54 39.7008,-48.0289 44.2071,-42.754 49.228,-38.2284"/>
<polygon fill="black" stroke="black" points="51.7404,-40.7025 57.3925,-31.7412 47.3858,-35.2219 51.7404,-40.7025"/>
<text text-anchor="middle" x="70.7468" y="-57.8" font-family="Times,serif" font-size="14.00">ATCC 4 2.0</text>
</g>
<!-- CTC&#45;&gt;TCC -->
<g id="edge8" class="edge"><title>CTC&#45;&gt;TCC</title>
<path fill="none" stroke="black" d="M120.174,-86.9556C116.149,-77.1074 110.649,-64.6074 104.747,-54 102.788,-50.4792 100.57,-46.8654 98.2944,-43.359"/>
<polygon fill="black" stroke="black" points="101.13,-41.3039 92.6305,-34.9785 95.3302,-45.2236 101.13,-41.3039"/>
<text text-anchor="middle" x="146.247" y="-57.8" font-family="Times,serif" font-size="14.00">CTCC 4 2.0</text>
</g>
</g>
</svg>
