<?xml version="1.0" encoding="UTF-8" standalone="no"?>
<!DOCTYPE svg PUBLIC "-//W3C//DTD SVG 1.1//EN"
 "http://www.w3.org/Graphics/SVG/1.1/DTD/svg11.dtd">
<!-- Generated by graphviz version 2.38.0 (20140413.2041)
 -->
<!-- Title: %3 Pages: 1 -->
<svg width="203pt" height="131pt"
 viewBox="0.00 0.00 202.72 131.00" xmlns="http://www.w3.org/2000/svg" xmlns:xlink="http://www.w3.org/1999/xlink">
<g id="graph0" class="graph" transform="scale(1 1) rotate(0) translate(4 127)">
<title>%3</title>
<polygon fill="white" stroke="none" points="-4,4 -4,-127 198.72,-127 198.72,4 -4,4"/>
<!-- ATG -->
<g id="node1" class="node"><title>ATG</title>
<ellipse fill="none" stroke="black" cx="60.7205" cy="-105" rx="35.9954" ry="18"/>
<text text-anchor="middle" x="60.7205" y="-101.3" font-family="Times,serif" font-size="14.00">ATG 2</text>
</g>
<!-- TCC -->
<g id="node2" class="node"><title>TCC</title>
<ellipse fill="none" stroke="black" cx="60.7205" cy="-18" rx="34.394" ry="18"/>
<text text-anchor="middle" x="60.7205" y="-14.3" font-family="Times,serif" font-size="14.00">TCC 2</text>
</g>
<!-- ATG&#45;&gt;TCC -->
<g id="edge1" class="edge"><title>ATG&#45;&gt;TCC</title>
<path fill="none" stroke="black" d="M32.1537,-93.9754C20.8946,-88.4581 9.13802,-80.3681 2.72048,-69 -5.44082,-54.5429 8.16057,-42.2929 24.2352,-33.5367"/>
<polygon fill="black" stroke="black" points="25.8955,-36.6201 33.2975,-29.0397 22.7839,-30.3496 25.8955,-36.6201"/>
<text text-anchor="middle" x="50.7205" y="-57.8" font-family="Times,serif" font-size="14.00">ATGATCC 7 2.0</text>
</g>
<!-- ATG&#45;&gt;TCC -->
<g id="edge2" class="edge"><title>ATG&#45;&gt;TCC</title>
<path fill="none" stroke="black" d="M81.843,-90.0001C88.5325,-84.3516 95.1187,-77.2142 98.7205,-69 103.407,-58.3127 97.532,-47.8219 89.1081,-39.2314"/>
<polygon fill="black" stroke="black" points="91.3881,-36.5748 81.6083,-32.4998 86.7123,-41.7842 91.3881,-36.5748"/>
<text text-anchor="middle" x="147.22" y="-57.8" font-family="Times,serif" font-size="14.00">ATGCTCC 7 2.0</text>
</g>
</g>
</svg>
